<svg width="30" height="30" viewBox="0 0 30 30" fill="none" xmlns="http://www.w3.org/2000/svg">
<path d="M26.2491 15.001C26.2491 8.79004 21.21 3.75098 14.9991 3.75098C8.78815 3.75098 3.74908 8.79004 3.74908 15.001C3.74908 21.2119 8.78815 26.251 14.9991 26.251C21.21 26.251 26.2491 21.2119 26.2491 15.001Z" stroke="#222222" stroke-width="1.87814" stroke-miterlimit="10"/>
<path d="M21.399 18.3411C20.4421 17.2079 19.7666 16.7315 19.7666 13.6067C19.7666 10.7438 18.256 9.72603 17.0126 9.23149C16.9269 9.19571 16.8496 9.14241 16.7856 9.07501C16.7216 9.00761 16.6724 8.9276 16.6412 8.84009C16.4238 8.12231 15.8138 7.50122 15.0005 7.50122C14.1873 7.50122 13.5761 8.12231 13.3599 8.84067C13.3288 8.9282 13.2798 9.00824 13.2159 9.07565C13.152 9.14307 13.0747 9.19635 12.989 9.23208C11.7445 9.72778 10.2351 10.7438 10.2351 13.6073C10.2351 16.7321 9.55894 17.2084 8.6021 18.3417C8.20542 18.8104 8.56402 19.6893 9.25777 19.6893H20.7427C21.4324 19.6887 21.7939 18.8098 21.399 18.3411Z" fill="#222222"/>
<path d="M12.9035 20.626C12.8705 20.6258 12.8379 20.6326 12.8077 20.6459C12.7775 20.6592 12.7504 20.6787 12.7283 20.7031C12.7062 20.7276 12.6894 20.7565 12.6792 20.7878C12.669 20.8192 12.6655 20.8524 12.669 20.8852C12.8009 21.9828 13.7754 22.5024 15.0004 22.5024C16.2124 22.5024 17.1781 21.9658 17.3259 20.8887C17.3299 20.8556 17.3268 20.822 17.3168 20.7903C17.3068 20.7585 17.2902 20.7292 17.268 20.7043C17.2458 20.6795 17.2186 20.6596 17.1881 20.6461C17.1577 20.6326 17.1247 20.6257 17.0914 20.626H12.9035Z" fill="#222222"/>
</svg>
