<svg width="40" height="40" viewBox="0 0 40 40" fill="none" xmlns="http://www.w3.org/2000/svg">
<path d="M13.7603 33.773C14.4569 33.773 15.0216 33.2083 15.0216 32.5117C15.0216 31.8152 14.4569 31.2505 13.7603 31.2505C13.0638 31.2505 12.4991 31.8152 12.4991 32.5117C12.4991 33.2083 13.0638 33.773 13.7603 33.773Z" stroke="white" stroke-width="2.50418" stroke-linecap="round" stroke-linejoin="round"/>
<path d="M31.2602 33.773C31.9568 33.773 32.5215 33.2083 32.5215 32.5117C32.5215 31.8152 31.9568 31.2505 31.2602 31.2505C30.5636 31.2505 29.999 31.8152 29.999 32.5117C29.999 33.2083 30.5636 33.773 31.2602 33.773Z" stroke="white" stroke-width="2.50418" stroke-linecap="round" stroke-linejoin="round"/>
<path d="M3.7489 6.24976H8.7489L12.4989 27.4998H32.4989" stroke="white" stroke-width="2.50418" stroke-linecap="round" stroke-linejoin="round"/>
<path d="M12.5016 22.501H31.9892C32.1337 22.5011 32.2738 22.4511 32.3856 22.3595C32.4975 22.2679 32.5741 22.1404 32.6024 21.9986L34.8524 10.7486C34.8706 10.6579 34.8684 10.5643 34.846 10.4745C34.8236 10.3848 34.7815 10.3011 34.7228 10.2296C34.6641 10.1581 34.5903 10.1005 34.5067 10.0609C34.423 10.0214 34.3317 10.0009 34.2392 10.001H10.0016" stroke="white" stroke-width="2.50418" stroke-linecap="round" stroke-linejoin="round"/>
</svg>
