<svg width="24" height="24" viewBox="0 0 24 24" fill="none" xmlns="http://www.w3.org/2000/svg">
<path d="M21.4082 19.7546L16.9977 15.3441C18.0595 13.9306 18.6328 12.2099 18.6308 10.442C18.6308 5.92602 14.9568 2.25195 10.4408 2.25195C5.92489 2.25195 2.25082 5.92602 2.25082 10.442C2.25082 14.9579 5.92489 18.632 10.4408 18.632C12.2088 18.6339 13.9294 18.0607 15.343 16.9988L19.7535 21.4093C19.9767 21.6089 20.2679 21.7154 20.5673 21.707C20.8666 21.6986 21.1514 21.576 21.3631 21.3642C21.5749 21.1525 21.6975 20.8677 21.7059 20.5684C21.7143 20.2691 21.6077 19.9779 21.4082 19.7546ZM4.59082 10.442C4.59082 9.28493 4.93392 8.15389 5.57673 7.19187C6.21953 6.22984 7.13318 5.48003 8.20213 5.03726C9.27107 4.59449 10.4473 4.47864 11.5821 4.70436C12.7169 4.93008 13.7593 5.48724 14.5774 6.30538C15.3955 7.12352 15.9527 8.16589 16.1784 9.30067C16.4041 10.4355 16.2883 11.6117 15.8455 12.6806C15.4027 13.7496 14.6529 14.6632 13.6909 15.306C12.7289 15.9489 11.5978 16.292 10.4408 16.292C8.88988 16.2901 7.40299 15.6732 6.3063 14.5765C5.20962 13.4798 4.59268 11.9929 4.59082 10.442Z" fill="#7A7A7A"/>
</svg>
