<svg width="20" height="20" viewBox="0 0 20 20" fill="none" xmlns="http://www.w3.org/2000/svg">
<path fill-rule="evenodd" clip-rule="evenodd" d="M10 0C4.47715 0 0 4.47715 0 10C0 15.5228 4.47715 20 10 20C15.5228 20 20 15.5228 20 10C20 4.47715 15.5228 0 10 0ZM8.08538 4.04218C7.52392 5.30546 7.12736 7.03347 7.02567 9H12.9743C12.8726 7.03347 12.4761 5.30546 11.9146 4.04218C11.5866 3.30422 11.222 2.76892 10.8676 2.43166C10.5184 2.0993 10.2269 2 10 2C9.7731 2 9.48164 2.0993 9.1324 2.43166C8.77801 2.76892 8.41337 3.30422 8.08538 4.04218ZM6.44561 2.83099C6.38064 2.96122 6.31802 3.09431 6.25776 3.2299C5.56798 4.78191 5.12643 6.79597 5.02328 9H2.06189C2.39999 6.2887 4.09485 3.99874 6.44561 2.83099ZM13.5544 2.83099C13.6194 2.96122 13.682 3.09431 13.7422 3.2299C14.432 4.78191 14.8736 6.79597 14.9767 9H17.9381C17.6 6.2887 15.9052 3.99875 13.5544 2.83099ZM17.9381 11H14.9767C14.8736 13.204 14.432 15.2181 13.7422 16.7701C13.682 16.9057 13.6194 17.0388 13.5544 17.169C15.9052 16.0013 17.6 13.7113 17.9381 11ZM10 18C10.2269 18 10.5184 17.9007 10.8676 17.5683C11.222 17.2311 11.5866 16.6958 11.9146 15.9578C12.4761 14.6945 12.8726 12.9665 12.9743 11H7.02567C7.12736 12.9665 7.52392 14.6945 8.08538 15.9578C8.41337 16.6958 8.77801 17.2311 9.1324 17.5683C9.48164 17.9007 9.7731 18 10 18ZM6.44561 17.169C6.38064 17.0388 6.31802 16.9057 6.25776 16.7701C5.56798 15.2181 5.12643 13.204 5.02328 11H2.06189C2.39999 13.7113 4.09485 16.0013 6.44561 17.169Z" fill="white"/>
</svg>
