<svg width="17" height="17" viewBox="0 0 17 17" fill="none" xmlns="http://www.w3.org/2000/svg">
<path d="M8.50105 1.59392C4.693 1.59392 1.59482 4.69209 1.59482 8.50014C1.59482 12.3082 4.693 15.4064 8.50105 15.4064C12.3091 15.4064 15.4073 12.3082 15.4073 8.50014C15.4073 4.69209 12.3091 1.59392 8.50105 1.59392ZM12.0953 6.18556L7.63279 11.498C7.58384 11.5563 7.52293 11.6035 7.45419 11.6362C7.38545 11.6689 7.31048 11.6864 7.23436 11.6876H7.22539C7.15093 11.6876 7.0773 11.6719 7.00929 11.6416C6.94128 11.6113 6.8804 11.567 6.83061 11.5117L4.91811 9.38666C4.86954 9.33515 4.83176 9.27444 4.80699 9.20812C4.78221 9.14179 4.77094 9.07118 4.77385 9.00044C4.77675 8.9297 4.79377 8.86025 4.82389 8.79617C4.85402 8.7321 4.89665 8.6747 4.94928 8.62734C5.00191 8.57997 5.06348 8.54361 5.13036 8.52038C5.19724 8.49715 5.26809 8.48753 5.33875 8.49207C5.40941 8.49662 5.47844 8.51524 5.5418 8.54685C5.60515 8.57845 5.66155 8.6224 5.70768 8.67612L7.21145 10.3469L11.2818 5.50224C11.3731 5.39668 11.5023 5.33129 11.6414 5.32021C11.7805 5.30912 11.9184 5.35323 12.0253 5.443C12.1322 5.53277 12.1994 5.66098 12.2125 5.79993C12.2256 5.93889 12.1835 6.07741 12.0953 6.18556Z" fill="#02A630"/>
</svg>
