<svg width="38" height="38" viewBox="0 0 38 38" fill="none" xmlns="http://www.w3.org/2000/svg">
<path fill-rule="evenodd" clip-rule="evenodd" d="M16.625 7.42151V5.9375H21.375V7.42157C25.5501 8.48608 28.6319 12.292 28.6319 16.8125V24.25C28.6319 24.889 28.8472 25.8058 29.1069 26.6472C29.2312 27.0498 29.3558 27.405 29.4494 27.6591C29.4961 27.7858 29.5346 27.8865 29.561 27.9542L29.5911 28.0304L29.5982 28.0483L29.5996 28.0519L28.5 29.6875H9.49994L8.40025 28.0519L8.40168 28.0483L8.40885 28.0304L8.43884 27.9542C8.4653 27.8865 8.50387 27.7858 8.55051 27.6591C8.64407 27.405 8.76877 27.0498 8.89303 26.6472C9.15273 25.8058 9.368 24.889 9.368 24.25V16.8125C9.368 12.2919 12.4499 8.48592 16.625 7.42151ZM19 9.5C14.9994 9.5 11.743 12.7666 11.743 16.8125V24.25C11.743 25.257 11.4388 26.4466 11.1732 27.3125H26.8267C26.5611 26.4466 26.2569 25.257 26.2569 24.25V16.8125C26.2569 12.7666 23.0005 9.5 19 9.5ZM23.75 33.25H14.2501V30.875H23.75V33.25Z" fill="white"/>
</svg>
